<?xml version="1.0" standalone="no"?>
<!DOCTYPE svg PUBLIC "-//W3C//DTD SVG 20010904//EN"
 "http://www.w3.org/TR/2001/REC-SVG-20010904/DTD/svg10.dtd">
<svg version="1.0" xmlns="http://www.w3.org/2000/svg"
 width="512.000000pt" height="512.000000pt" viewBox="0 0 512.000000 512.000000"
 preserveAspectRatio="xMidYMid meet">

<g transform="translate(0.000000,512.000000) scale(0.100000,-0.100000)"
fill="#000000" stroke="none">
<path d="M3864 3612 c-25 -16 -34 -56 -34 -147 0 -91 9 -131 34 -147 6 -4 65
-8 132 -8 157 0 154 -3 154 153 0 158 1 157 -157 157 -65 0 -123 -4 -129 -8z
m261 -22 c20 -22 16 -34 -8 -24 -9 3 -14 13 -11 22 5 15 4 15 -9 0 -8 -10 -17
-15 -20 -12 -3 3 -15 1 -26 -6 -12 -6 -21 -7 -20 -3 3 18 -2 24 -12 17 -7 -4
-27 -8 -46 -10 -19 -2 -44 -6 -55 -10 -14 -4 -18 -2 -14 5 8 12 -21 4 -41 -12
-10 -7 -13 -4 -13 10 0 37 19 43 140 43 104 0 119 -2 135 -20z m-76 -54 c6 -7
11 -29 10 -47 -1 -19 2 -43 6 -55 11 -34 -18 -54 -81 -54 l-54 0 0 85 0 85 54
0 c33 0 58 -5 65 -14z"/>
<path d="M3970 3498 c0 -14 6 -19 23 -16 12 2 22 10 22 18 0 9 -10 15 -22 16
-16 1 -23 -4 -23 -18z"/>
<path d="M3970 3430 c0 -15 7 -20 25 -20 18 0 25 5 25 20 0 15 -7 20 -25 20
-18 0 -25 -5 -25 -20z"/>
<path d="M3646 3530 c3 -14 17 -53 29 -87 l23 -63 -22 0 c-12 0 -27 9 -34 20
-7 11 -22 20 -33 20 -12 0 -23 -8 -26 -20 -3 -13 -14 -20 -29 -20 -13 0 -24 1
-24 3 0 2 11 37 25 77 25 74 28 107 5 50 -7 -17 -18 -30 -24 -29 -6 1 -25 1
-43 0 -28 -1 -32 -5 -38 -41 -4 -22 -4 -53 0 -70 12 -55 25 -60 151 -60 64 0
124 5 135 10 16 9 19 22 19 88 0 48 -4 72 -9 63 -6 -9 -15 -11 -27 -6 -11 5
-23 9 -29 9 -5 1 -20 19 -33 41 -15 26 -21 31 -16 15z"/>
<path d="M3605 3477 c-8 -19 -2 -31 13 -26 5 2 6 13 2 24 -7 19 -8 19 -15 2z"/>
<path d="M3471 3224 c-18 -23 -21 -41 -21 -134 0 -93 3 -111 21 -134 20 -25
23 -26 137 -26 64 0 122 4 128 8 25 17 34 56 34 155 0 90 -3 108 -21 131 -20
25 -23 26 -139 26 -116 0 -119 -1 -139 -26z m193 -65 c14 -11 26 -27 26 -35 0
-19 -29 -18 -52 3 -29 26 -53 6 -53 -43 0 -33 3 -39 24 -42 13 -2 28 1 34 7
14 14 47 14 47 1 0 -20 -41 -50 -69 -50 -43 0 -60 9 -76 41 -23 43 -18 77 14
110 35 34 68 37 105 8z"/>
<path d="M3923 3243 c42 -5 46 -15 17 -40 -17 -14 -20 -30 -20 -89 0 -56 -4
-77 -20 -97 -11 -14 -20 -35 -20 -47 0 -17 -4 -21 -17 -16 -15 5 -15 4 1 -9
16 -12 52 -15 169 -15 167 0 205 -10 238 -64 24 -40 24 -109 0 -161 -10 -22
-50 -79 -89 -125 -110 -131 -152 -223 -152 -332 l0 -48 124 0 124 0 7 38 c11
64 44 114 139 212 103 106 136 157 162 245 47 162 -2 336 -125 448 -94 85
-182 107 -411 105 -91 -1 -148 -3 -127 -5z m130 -92 c10 -9 20 -34 24 -54 5
-31 1 -40 -25 -67 -25 -25 -39 -30 -76 -30 l-46 0 0 90 0 89 53 -5 c29 -3 60
-13 70 -23z"/>
<path d="M3970 3090 c0 -41 3 -50 18 -50 42 0 60 70 23 90 -34 18 -41 12 -41
-40z"/>
<path d="M3845 3219 c-4 -6 -5 -12 -2 -15 2 -3 7 2 10 11 7 17 1 20 -8 4z"/>
<path d="M1220 3198 c0 -2 -2 -63 -3 -136 -2 -131 -2 -132 21 -132 21 0 22 4
22 68 0 72 10 92 45 92 35 0 45 -20 45 -92 0 -61 2 -68 20 -68 18 0 20 7 20
80 0 67 -3 83 -20 100 -24 24 -57 26 -88 4 -22 -15 -22 -15 -22 35 0 44 -3 51
-20 51 -11 0 -20 -1 -20 -2z"/>
<path d="M1810 3065 c0 -128 1 -135 20 -135 11 0 20 5 20 11 0 5 10 3 22 -5
27 -19 48 -20 81 -5 66 30 63 162 -5 190 -24 10 -35 9 -64 -4 l-34 -17 0 50
c0 43 -3 50 -20 50 -19 0 -20 -7 -20 -135z m134 3 c31 -44 7 -108 -39 -108
-49 0 -72 73 -35 110 26 26 55 25 74 -2z"/>
<path d="M610 3060 l0 -130 91 0 c81 0 90 2 87 18 -3 14 -16 18 -66 20 l-62 3
0 34 0 35 55 0 c48 0 55 2 55 20 0 18 -7 20 -56 20 l-55 0 3 33 c3 32 4 32 61
35 49 3 57 6 57 22 0 18 -7 20 -85 20 l-85 0 0 -130z"/>
<path d="M830 3060 l0 -130 80 0 c73 0 80 2 80 20 0 18 -7 20 -55 20 l-55 0 0
110 0 110 -25 0 -25 0 0 -130z"/>
<path d="M1052 3118 c-26 -13 -39 -54 -25 -77 5 -9 31 -22 56 -30 34 -10 47
-20 47 -33 0 -22 -46 -25 -69 -4 -11 10 -21 12 -31 6 -38 -23 40 -70 94 -56
14 3 33 18 42 32 26 38 7 69 -53 86 -29 8 -48 19 -48 28 0 18 43 26 58 11 12
-12 47 -15 47 -3 -1 22 -45 53 -77 51 -10 0 -28 -5 -41 -11z"/>
<path d="M1478 3115 c-35 -20 -48 -44 -48 -93 0 -76 70 -121 141 -91 38 15 63
68 55 114 -12 65 -91 102 -148 70z m86 -41 c9 -8 16 -31 16 -49 0 -61 -62 -89
-94 -43 -22 31 -20 64 4 88 24 24 53 26 74 4z"/>
<path d="M1732 3114 c-12 -8 -22 -10 -22 -5 0 6 -11 11 -25 11 -25 0 -25 0
-25 -95 0 -95 0 -95 25 -95 24 0 25 2 25 64 0 65 8 81 45 88 12 2 21 13 23 26
4 26 -14 29 -46 6z"/>
<path d="M2083 3120 c-12 -5 -26 -18 -32 -28 -9 -16 -7 -21 9 -25 11 -3 25 2
31 10 18 21 64 13 64 -12 0 -15 -10 -21 -45 -28 -73 -13 -99 -67 -52 -104 22
-18 67 -16 82 2 9 11 16 13 24 5 5 -5 17 -10 26 -10 12 0 15 12 12 67 -4 94
-8 108 -37 121 -30 14 -51 14 -82 2z m57 -152 c-17 -13 -26 -15 -41 -8 -28 15
-23 39 9 46 15 3 32 7 37 8 20 6 17 -29 -5 -46z"/>
<path d="M2290 3117 c-47 -24 -64 -92 -35 -146 21 -41 72 -54 116 -31 16 9 19
7 19 -9 0 -43 -63 -69 -90 -36 -16 19 -50 20 -50 1 0 -25 42 -46 90 -46 36 0
52 5 69 24 21 22 23 35 25 135 1 109 1 111 -21 111 -13 0 -23 -4 -23 -9 0 -6
-12 -3 -27 5 -34 17 -41 17 -73 1z m84 -46 c27 -29 18 -82 -17 -101 -27 -14
-29 -14 -53 14 -26 29 -27 64 -2 93 15 19 52 16 72 -6z"/>
<path d="M2475 3103 c55 -138 65 -178 55 -206 -14 -42 -13 -49 11 -45 17 2 30
28 70 133 27 72 49 131 49 133 0 1 -11 2 -23 2 -20 0 -27 -9 -42 -60 -10 -34
-22 -63 -26 -65 -4 -3 -17 24 -30 60 -19 56 -26 65 -47 65 -19 0 -23 -4 -17
-17z"/>
<path d="M2690 3030 c0 -18 7 -20 60 -20 53 0 60 2 60 20 0 18 -7 20 -60 20
-53 0 -60 -2 -60 -20z"/>
<path d="M859 2742 c-206 -56 -329 -237 -316 -467 10 -190 103 -320 275 -386
82 -31 215 -36 310 -11 l72 19 21 -34 c11 -18 26 -33 32 -33 13 0 181 31 184
34 1 1 -22 35 -51 76 l-54 73 29 41 c16 22 39 71 50 108 28 91 23 235 -10 320
-46 119 -150 219 -264 253 -83 25 -201 28 -278 7z m240 -204 c51 -27 105 -98
122 -161 14 -51 6 -155 -14 -174 -12 -12 -18 -7 -48 36 -21 32 -40 49 -49 46
-8 -3 -48 -11 -89 -20 -41 -9 -76 -17 -77 -18 -1 -1 27 -42 63 -91 74 -100 73
-106 -17 -106 -140 0 -240 105 -240 251 0 86 17 133 68 190 72 81 180 98 281
47z"/>
<path d="M1520 2437 c0 -338 5 -372 63 -449 92 -121 300 -163 458 -92 64 29
115 78 151 146 22 42 23 51 26 371 l3 327 -99 0 c-83 0 -101 -3 -106 -16 -4
-9 -6 -145 -6 -301 1 -243 -1 -288 -15 -309 -53 -81 -183 -84 -243 -6 l-27 35
-3 299 -3 298 -100 0 -99 0 0 -303z"/>
<path d="M2350 2310 l0 -430 105 0 105 0 0 430 0 430 -105 0 -105 0 0 -430z"/>
<path d="M2680 2645 l0 -95 180 0 c99 0 180 -4 180 -9 0 -4 -81 -121 -180
-260 l-180 -252 0 -74 0 -75 315 0 315 0 0 95 0 95 -175 0 c-96 0 -175 3 -175
8 0 4 79 117 175 252 l175 245 0 83 0 82 -315 0 -315 0 0 -95z"/>
<path d="M3410 2645 l0 -95 175 0 c96 0 175 -2 175 -4 0 -2 -81 -117 -180
-255 l-180 -252 0 -80 0 -79 271 0 270 0 -7 22 c-10 33 -7 124 6 147 11 21 10
21 -131 21 -110 0 -140 3 -136 13 2 7 82 121 176 254 l171 241 0 81 0 81 -305
0 -305 0 0 -95z"/>
<path d="M4079 2077 c-46 -31 -61 -62 -56 -121 4 -42 10 -55 41 -83 29 -27 44
-33 81 -33 88 0 135 45 135 128 0 107 -113 168 -201 109z"/>
</g>
</svg>
